<svg width="200" height="200" viewBox="0 0 200 200" xmlns="http://www.w3.org/2000/svg">
  <!-- Main Music Note with Hearts -->
  <path d="M70 50 Q80 40 90 50 Q100 60 90 70 Q80 80 70 70 Z" fill="#53C5E5" stroke="#333" stroke-width="4"/>
  <path d="M110 60 Q120 50 130 60 Q140 70 130 80 Q120 90 110 80 Z" fill="#53C5E5" stroke="#333" stroke-width="4"/>
  <path d="M70 100 Q80 90 90 100 Q100 110 90 120 Q80 130 70 120 Z" fill="#F16A8F" stroke="#333" stroke-width="4"/>

  <!-- Small Surrounding Hearts -->
  <path d="M40 40 Q50 30 60 40 Q50 50 40 40 Z" fill="#F16A8F" />
  <path d="M150 50 Q160 40 170 50 Q160 60 150 50 Z" fill="#F16A8F" />
  <path d="M130 130 Q140 120 150 130 Q140 140 130 130 Z" fill="#53C5E5" />
  <path d="M90 150 Q100 140 110 150 Q100 160 90 150 Z" fill="#F16A8F" />

  <!-- Background Circles for Soft Effect -->
  <circle cx="90" cy="70" r="45" fill="#EFEFEF" />
  <circle cx="120" cy="110" r="35" fill="#EFEFEF" />
</svg>
